<svg width="94" height="32" viewBox="0 0 94 32" fill="none" xmlns="http://www.w3.org/2000/svg">
<path d="M12.504 25.384C10.7973 25.384 9.21867 25.0747 7.768 24.456C6.33867 23.8373 5.08 22.9733 3.992 21.864C2.92533 20.7547 2.09333 19.4533 1.496 17.96C0.898667 16.4667 0.6 14.8347 0.6 13.064C0.6 11.2933 0.888 9.66133 1.464 8.168C2.06133 6.65333 2.89333 5.352 3.96 4.264C5.048 3.15467 6.31733 2.30133 7.768 1.704C9.21867 1.08533 10.7973 0.775999 12.504 0.775999C14.2107 0.775999 15.736 1.064 17.08 1.64C18.4453 2.216 19.5973 2.984 20.536 3.944C21.4747 4.88267 22.1467 5.91733 22.552 7.048L18.648 8.872C18.2 7.67733 17.4427 6.696 16.376 5.928C15.3093 5.13867 14.0187 4.744 12.504 4.744C11.0107 4.744 9.688 5.096 8.536 5.8C7.40533 6.504 6.52 7.47467 5.88 8.712C5.26133 9.94933 4.952 11.4 4.952 13.064C4.952 14.728 5.26133 16.1893 5.88 17.448C6.52 18.6853 7.40533 19.656 8.536 20.36C9.688 21.064 11.0107 21.416 12.504 21.416C14.0187 21.416 15.3093 21.032 16.376 20.264C17.4427 19.4747 18.2 18.4827 18.648 17.288L22.552 19.112C22.1467 20.2427 21.4747 21.288 20.536 22.248C19.5973 23.1867 18.4453 23.944 17.08 24.52C15.736 25.096 14.2107 25.384 12.504 25.384ZM29.7408 25.384C28.5248 25.384 27.4688 25.1813 26.5728 24.776C25.6768 24.3707 24.9834 23.7947 24.4928 23.048C24.0021 22.28 23.7568 21.3947 23.7568 20.392C23.7568 19.432 23.9701 18.5787 24.3968 17.832C24.8234 17.064 25.4848 16.424 26.3808 15.912C27.2768 15.4 28.4074 15.0373 29.7728 14.824L35.4688 13.896V17.096L30.5728 17.928C29.7408 18.0773 29.1221 18.344 28.7168 18.728C28.3114 19.112 28.1088 19.6133 28.1088 20.232C28.1088 20.8293 28.3328 21.3093 28.7808 21.672C29.2501 22.0133 29.8261 22.184 30.5088 22.184C31.3834 22.184 32.1514 22.0027 32.8128 21.64C33.4954 21.256 34.0181 20.7333 34.3808 20.072C34.7648 19.4107 34.9568 18.6853 34.9568 17.896V13.416C34.9568 12.6693 34.6581 12.0507 34.0608 11.56C33.4848 11.048 32.7168 10.792 31.7568 10.792C30.8608 10.792 30.0608 11.0373 29.3568 11.528C28.6741 11.9973 28.1728 12.6267 27.8528 13.416L24.4288 11.752C24.7701 10.8347 25.3034 10.0453 26.0288 9.384C26.7754 8.70133 27.6501 8.168 28.6528 7.784C29.6554 7.4 30.7434 7.208 31.9168 7.208C33.3461 7.208 34.6048 7.47467 35.6928 8.008C36.7808 8.52 37.6234 9.24533 38.2208 10.184C38.8394 11.1013 39.1488 12.1787 39.1488 13.416V25H35.1808V22.024L36.0768 21.96C35.6288 22.7067 35.0954 23.336 34.4768 23.848C33.8581 24.3387 33.1541 24.7227 32.3648 25C31.5754 25.256 30.7008 25.384 29.7408 25.384ZM42.0633 25V7.592H45.9993V11.464L45.6793 10.888C46.0846 9.58667 46.7139 8.68 47.5673 8.168C48.4419 7.656 49.4873 7.4 50.7033 7.4H51.7273V11.112H50.2233C49.0286 11.112 48.0686 11.4853 47.3433 12.232C46.6179 12.9573 46.2553 13.9813 46.2553 15.304V25H42.0633ZM62.608 25.384C60.7733 25.384 59.1413 25 57.712 24.232C56.304 23.464 55.1947 22.408 54.384 21.064C53.5733 19.72 53.168 18.1947 53.168 16.488V1.16H57.52V16.264C57.52 17.2453 57.7333 18.1307 58.16 18.92C58.608 19.7093 59.216 20.328 59.984 20.776C60.752 21.2027 61.6267 21.416 62.608 21.416C63.6107 21.416 64.4853 21.2027 65.232 20.776C66 20.328 66.5973 19.7093 67.024 18.92C67.472 18.1307 67.696 17.2453 67.696 16.264V1.16H72.048V16.488C72.048 18.1947 71.6427 19.72 70.832 21.064C70.0213 22.408 68.9013 23.464 67.472 24.232C66.064 25 64.4427 25.384 62.608 25.384ZM75.0808 31.4V7.592H79.0168V11.048L78.6328 10.184C79.2301 9.24533 80.0408 8.52 81.0648 8.008C82.0888 7.47467 83.2728 7.208 84.6168 7.208C86.2594 7.208 87.7421 7.61333 89.0648 8.424C90.3874 9.23467 91.4328 10.3227 92.2008 11.688C92.9901 13.0533 93.3848 14.5893 93.3848 16.296C93.3848 17.9813 93.0008 19.5173 92.2328 20.904C91.4648 22.2907 90.4194 23.3893 89.0968 24.2C87.7741 24.9893 86.2701 25.384 84.5848 25.384C83.3261 25.384 82.1634 25.1387 81.0968 24.648C80.0514 24.136 79.2194 23.4107 78.6008 22.472L79.2728 21.64V31.4H75.0808ZM84.1048 21.544C85.0648 21.544 85.9181 21.32 86.6648 20.872C87.4114 20.424 87.9874 19.8053 88.3928 19.016C88.8194 18.2267 89.0328 17.32 89.0328 16.296C89.0328 15.272 88.8194 14.376 88.3928 13.608C87.9874 12.8187 87.4114 12.2 86.6648 11.752C85.9181 11.2827 85.0648 11.048 84.1048 11.048C83.1874 11.048 82.3554 11.272 81.6088 11.72C80.8834 12.168 80.3074 12.7973 79.8808 13.608C79.4754 14.3973 79.2728 15.2933 79.2728 16.296C79.2728 17.32 79.4754 18.2267 79.8808 19.016C80.3074 19.8053 80.8834 20.424 81.6088 20.872C82.3554 21.32 83.1874 21.544 84.1048 21.544Z" fill="#3563E9"/>
</svg>
