<svg width="24" height="24" viewBox="0 0 24 24" fill="none" xmlns="http://www.w3.org/2000/svg">
<g id="vuesax/bold/profile-2user">
<g id="profile-2user">
<path id="Vector" d="M9 2C6.38 2 4.25 4.13 4.25 6.75C4.25 9.32 6.26 11.4 8.88 11.49C8.96 11.48 9.04 11.48 9.1 11.49C9.12 11.49 9.13 11.49 9.15 11.49C9.16 11.49 9.16 11.49 9.17 11.49C11.73 11.4 13.74 9.32 13.75 6.75C13.75 4.13 11.62 2 9 2Z" fill="#90A3BF"/>
<path id="Vector_2" d="M14.08 14.1528C11.29 12.2928 6.73996 12.2928 3.92996 14.1528C2.65996 15.0028 1.95996 16.1528 1.95996 17.3828C1.95996 18.6128 2.65996 19.7528 3.91996 20.5928C5.31996 21.5328 7.15996 22.0028 8.99996 22.0028C10.84 22.0028 12.68 21.5328 14.08 20.5928C15.34 19.7428 16.04 18.6028 16.04 17.3628C16.03 16.1328 15.34 14.9928 14.08 14.1528Z" fill="#90A3BF"/>
<path id="Vector_3" d="M19.9901 7.33815C20.1501 9.27815 18.7701 10.9781 16.8601 11.2081C16.8501 11.2081 16.8501 11.2081 16.8401 11.2081H16.8101C16.7501 11.2081 16.6901 11.2081 16.6401 11.2281C15.6701 11.2781 14.7801 10.9681 14.1101 10.3981C15.1401 9.47815 15.7301 8.09815 15.6101 6.59815C15.5401 5.78815 15.2601 5.04815 14.8401 4.41815C15.2201 4.22815 15.6601 4.10815 16.1101 4.06815C18.0701 3.89815 19.8201 5.35815 19.9901 7.33815Z" fill="#90A3BF"/>
<path id="Vector_4" d="M21.99 16.5904C21.91 17.5604 21.29 18.4004 20.25 18.9704C19.25 19.5204 17.99 19.7804 16.74 19.7504C17.46 19.1004 17.88 18.2904 17.96 17.4304C18.06 16.1904 17.47 15.0004 16.29 14.0504C15.62 13.5204 14.84 13.1004 13.99 12.7904C16.2 12.1504 18.98 12.5804 20.69 13.9604C21.61 14.7004 22.08 15.6304 21.99 16.5904Z" fill="#90A3BF"/>
</g>
</g>
</svg>
